<?xml version="1.0" standalone="no"?>
<!DOCTYPE svg PUBLIC "-//W3C//DTD SVG 20010904//EN"
 "http://www.w3.org/TR/2001/REC-SVG-20010904/DTD/svg10.dtd">
<svg version="1.0" xmlns="http://www.w3.org/2000/svg"
 width="512.000000pt" height="512.000000pt" viewBox="0 0 512.000000 512.000000"
 preserveAspectRatio="xMidYMid meet">
<metadata>
Created by potrace 1.14, written by Peter Selinger 2001-2017
</metadata>
<g transform="translate(0.000000,512.000000) scale(0.100000,-0.100000)"
fill="#000000" stroke="none">
<path d="M2370 4370 c-101 -105 -194 -205 -206 -222 -43 -57 -56 -110 -53
-197 2 -45 1 -81 -2 -81 -7 0 -208 92 -241 110 -10 6 -22 10 -28 10 -6 0 -10
-63 -10 -175 l0 -175 -175 0 c-96 0 -175 -2 -175 -4 0 -2 24 -57 54 -123 67
-144 70 -160 36 -153 -14 3 -52 5 -86 5 -83 -1 -149 -36 -249 -130 -91 -86
-325 -317 -325 -320 0 -1 73 -75 162 -163 291 -286 293 -287 436 -287 50 1 92
-1 92 -3 0 -2 -27 -62 -60 -134 -33 -71 -60 -132 -60 -134 0 -2 78 -5 173 -6
l172 -3 3 -177 c1 -98 4 -178 7 -178 2 0 37 15 77 34 73 34 189 86 192 86 0 0
1 -42 1 -92 0 -139 6 -148 342 -490 61 -62 111 -105 117 -101 32 20 366 373
398 421 44 66 52 97 46 192 -2 39 -2 70 1 70 3 0 23 -9 45 -19 153 -72 218
-101 227 -101 5 0 9 72 9 175 l0 175 175 0 c96 0 175 3 175 6 0 3 -13 34 -29
68 -67 141 -91 196 -91 204 0 5 31 7 70 4 142 -10 174 10 450 276 l174 169
-188 184 c-103 101 -205 196 -226 211 -69 51 -167 72 -247 54 -31 -7 -32 -7
-24 21 9 29 71 167 97 216 8 15 12 32 9 37 -4 6 -74 10 -176 10 l-169 0 0 175
c0 100 -4 175 -9 175 -10 0 -210 -88 -226 -100 -38 -26 -41 -20 -40 74 0 82
-3 96 -28 141 -15 28 -68 93 -117 145 -137 144 -303 310 -310 310 -3 0 -89
-86 -190 -190z m378 -121 c76 -78 144 -155 153 -173 25 -47 32 -107 18 -161
-11 -42 -30 -67 -148 -189 -75 -78 -144 -147 -153 -154 -17 -12 -18 8 -18 402
0 229 3 416 6 416 3 0 67 -63 142 -141z m-228 -281 l0 -413 -141 140 c-82 82
-149 157 -160 180 -22 48 -25 141 -5 189 14 33 280 316 297 316 5 0 9 -185 9
-412z m-430 -183 l145 -67 135 -140 c74 -77 136 -144 138 -149 2 -4 -2 -26 -8
-48 -11 -43 -111 -158 -128 -148 -5 4 -12 34 -16 68 -19 182 -166 321 -355
336 l-81 6 0 110 c0 83 3 108 13 104 6 -3 77 -35 157 -72z m1118 -47 l-3 -92
-91 -12 c-113 -13 -189 -49 -251 -118 -59 -66 -81 -112 -99 -204 -8 -42 -16
-77 -18 -80 -2 -2 -22 13 -45 33 -46 41 -96 134 -87 162 3 10 70 82 148 159
l143 142 145 65 c116 52 147 63 153 51 4 -7 6 -55 5 -106z m-1378 -224 c0 -55
24 -153 50 -204 50 -98 183 -186 295 -197 l64 -6 -14 -27 c-19 -36 -78 -82
-134 -104 l-44 -17 -51 49 c-28 27 -95 92 -148 143 -98 94 -98 94 -167 244
-38 83 -67 153 -64 158 2 4 51 7 109 7 l104 0 0 -46z m275 17 c113 -54 169
-140 170 -261 l0 -75 -53 -3 c-104 -6 -203 46 -262 138 -31 48 -34 62 -38 141
l-4 89 63 0 c50 0 77 -6 124 -29z m1100 7 c3 -13 1 -54 -4 -91 -22 -154 -156
-265 -308 -255 l-48 3 -3 68 c-3 79 14 126 74 196 55 64 136 99 231 100 47 1
53 -2 58 -21z m295 13 c0 -10 -29 -82 -55 -136 -8 -16 -28 -62 -46 -102 -28
-64 -47 -87 -175 -213 -78 -77 -150 -140 -159 -140 -45 0 -185 104 -185 139 0
4 28 11 62 15 196 20 348 190 348 388 l0 58 105 0 c58 0 105 -4 105 -9z m-888
-301 c32 -39 67 -69 106 -90 46 -24 62 -40 76 -71 17 -38 110 -141 151 -166
l20 -13 -20 -12 c-40 -26 -137 -129 -150 -162 -9 -20 -30 -43 -52 -56 -85 -51
-115 -75 -150 -123 l-37 -50 -15 24 c-35 54 -98 112 -147 136 -41 20 -56 34
-68 63 -17 44 -110 148 -143 161 -33 12 -29 25 17 54 45 28 117 115 126 151 4
17 27 36 70 60 56 31 154 124 154 146 0 18 18 3 62 -52z m-1018 12 c31 -15
316 -289 316 -304 0 -4 -187 -8 -415 -8 -403 0 -415 1 -406 19 6 10 78 81 160
158 161 151 185 165 271 155 25 -3 58 -11 74 -20z m2135 -15 c50 -33 308 -283
300 -291 -3 -3 -190 -5 -415 -4 l-409 3 145 143 c80 79 163 153 185 163 55 27
142 20 194 -14z m-1832 -375 c16 -10 -255 -281 -306 -307 -47 -24 -136 -23
-183 1 -46 24 -330 292 -322 305 6 11 794 12 811 1z m224 -35 c38 -17 123
-102 115 -116 -3 -4 -34 -11 -70 -13 -182 -15 -336 -188 -336 -380 l0 -58
-105 0 c-63 0 -105 4 -105 10 0 10 73 178 114 261 15 30 72 95 166 187 122
118 147 139 165 132 11 -5 36 -15 56 -23z m1909 24 c0 -10 -246 -250 -297
-288 -32 -25 -45 -28 -112 -28 -56 0 -82 5 -101 18 -39 27 -310 288 -310 298
0 5 169 9 410 9 226 0 410 -4 410 -9z m-808 -141 l145 -140 66 -144 c37 -80
67 -152 67 -160 0 -14 -17 -16 -105 -16 l-105 0 0 46 c0 56 -24 154 -51 207
-51 100 -202 197 -306 197 -29 0 -53 4 -53 10 0 34 135 138 181 140 9 0 81
-63 161 -140z m-966 -90 c26 -10 27 -12 22 -84 -6 -84 -35 -146 -97 -203 -45
-42 -131 -75 -196 -76 -73 -2 -79 5 -72 77 8 85 26 129 75 186 47 54 82 76
152 96 57 16 82 17 116 4z m741 -12 c51 -17 79 -34 113 -68 65 -64 84 -109 88
-207 l4 -83 -56 0 c-109 0 -216 62 -272 157 -22 38 -29 64 -32 126 -4 60 -1
81 9 88 23 15 75 10 146 -13z m-553 -89 c19 -23 43 -62 52 -86 l17 -44 -66
-67 c-36 -37 -101 -104 -144 -149 -72 -75 -86 -85 -193 -133 -63 -28 -129 -58
-147 -66 -53 -24 -54 -23 -51 94 l3 107 85 6 c124 8 219 61 294 163 32 43 66
141 66 190 0 18 3 36 6 39 11 10 40 -10 78 -54z m319 -10 c23 -182 168 -318
356 -335 l81 -7 0 -109 c0 -100 -1 -108 -17 -100 -35 17 -151 70 -248 112 -47
21 -318 289 -323 321 -8 45 100 197 133 186 5 -2 14 -33 18 -68z m-243 -663
c0 -224 -4 -407 -9 -410 -11 -7 -275 264 -298 306 -24 45 -24 151 0 196 19 35
284 312 298 312 5 0 9 -182 9 -404z m259 231 c64 -65 121 -133 128 -150 20
-55 16 -139 -9 -185 -19 -35 -280 -312 -294 -312 -2 0 -4 185 -4 412 l0 412
31 -30 c17 -16 84 -82 148 -147z"/>
<path d="M2025 1198 c-3 -7 -6 -159 -7 -338 l-3 -325 -157 -3 -158 -3 0 -34 0
-35 200 0 200 0 0 375 0 375 -35 0 c-20 0 -38 -6 -40 -12z"/>
<path d="M3005 1188 c-3 -13 -4 -180 -3 -373 l3 -350 203 -3 202 -2 0 35 0 34
-157 3 -158 3 -5 335 -5 335 -37 3 c-32 3 -38 0 -43 -20z"/>
<path d="M2438 1058 c-22 -13 -42 -34 -48 -51 -14 -41 -12 -135 4 -172 12 -28
11 -31 -18 -50 -44 -30 -56 -60 -56 -148 0 -145 39 -181 190 -175 82 3 91 5
119 32 l29 28 29 -32 c24 -27 34 -31 67 -28 l38 3 -49 56 c-88 101 -128 150
-131 160 -2 5 34 9 87 9 l91 0 0 30 0 30 -122 0 -121 0 -36 42 c-53 61 -60 77
-61 140 0 68 20 88 85 88 60 0 78 -18 85 -81 5 -52 6 -54 35 -54 28 0 30 3 33
42 4 55 -20 108 -60 133 -46 28 -140 27 -190 -2z m58 -348 c19 -21 52 -61 75
-89 l40 -51 -25 -25 c-21 -21 -35 -25 -80 -25 -100 0 -120 20 -120 120 0 65
11 100 37 109 27 10 30 8 73 -39z"/>
</g>
</svg>
