<svg width="41" height="41" viewBox="0 0 41 41" fill="none" xmlns="http://www.w3.org/2000/svg">
<path d="M20.5 2.13525C10.3482 2.14636 2.12685 10.3848 2.13795 20.5366C2.14128 23.6171 2.91875 26.6474 4.39893 29.349L2.98955 38.0103L11.6508 36.6009C20.5427 41.4782 31.7066 38.2247 36.5839 29.3319C41.4612 20.4392 38.2086 9.27694 29.3158 4.3988C26.614 2.91662 23.5817 2.13821 20.5 2.13525ZM11.3177 10.4805H16.3231C16.5496 10.4805 16.7669 10.5705 16.9271 10.7306C17.0873 10.8908 17.1773 11.1081 17.1773 11.3346C17.1492 12.4737 17.3406 13.6076 17.741 14.6744C17.9134 15.0315 17.9513 15.4388 17.8478 15.8216C17.7443 16.2044 17.5062 16.5371 17.1773 16.7586L15.4262 18.4669C16.2027 19.9831 17.2178 21.3645 18.4329 22.5584C19.617 23.7932 20.9929 24.8287 22.5073 25.6248L24.2156 23.8738C25.0698 23.0196 25.4627 23.0196 26.2998 23.31C27.3666 23.7104 28.5004 23.9018 29.6396 23.8738C29.8627 23.8842 30.074 23.9775 30.232 24.1355C30.39 24.2935 30.4833 24.5048 30.4937 24.728V29.7334C30.4833 29.9566 30.39 30.1678 30.232 30.3258C30.074 30.4838 29.8627 30.5771 29.6396 30.5875C24.615 30.3686 19.8522 28.2857 16.2804 24.745C12.7342 21.177 10.6503 16.4119 10.4379 11.3859C10.4399 11.1508 10.5325 10.9255 10.6963 10.7569C10.8602 10.5882 11.0827 10.4892 11.3177 10.4805Z" stroke="#4F585D" stroke-width="1.25" stroke-linecap="round" stroke-linejoin="round"/>
</svg>
