<svg width="41" height="41" viewBox="0 0 41 41" fill="none" xmlns="http://www.w3.org/2000/svg">
<g clip-path="url(#clip0_2011_11)">
<path d="M20.5 11.48C18.716 11.48 16.9721 12.009 15.4888 13.0001C14.0054 13.9913 12.8493 15.4 12.1666 17.0482C11.4839 18.6964 11.3053 20.51 11.6533 22.2597C12.0014 24.0094 12.8604 25.6166 14.1219 26.8781C15.3834 28.1396 16.9906 28.9986 18.7403 29.3467C20.49 29.6947 22.3036 29.5161 23.9518 28.8334C25.6 28.1507 27.0087 26.9946 27.9999 25.5112C28.991 24.0279 29.52 22.284 29.52 20.5C29.5173 18.1086 28.5661 15.8159 26.8751 14.1249C25.1841 12.4339 22.8914 11.4827 20.5 11.48ZM20.5 27.88C19.0404 27.88 17.6135 27.4472 16.3999 26.6362C15.1863 25.8253 14.2403 24.6727 13.6818 23.3242C13.1232 21.9757 12.977 20.4918 13.2618 19.0602C13.5466 17.6287 14.2494 16.3137 15.2816 15.2816C16.3137 14.2494 17.6287 13.5466 19.0602 13.2618C20.4918 12.977 21.9757 13.1232 23.3242 13.6818C24.6727 14.2403 25.8253 15.1863 26.6362 16.3999C27.4472 17.6135 27.88 19.0404 27.88 20.5C27.88 22.4573 27.1025 24.3344 25.7184 25.7184C24.3344 27.1025 22.4573 27.88 20.5 27.88ZM30.34 0H10.66C7.83379 0.00325538 5.12427 1.1274 3.12584 3.12584C1.1274 5.12427 0.00325538 7.83379 0 10.66V30.34C0.00325538 33.1662 1.1274 35.8757 3.12584 37.8742C5.12427 39.8726 7.83379 40.9967 10.66 41H30.34C33.1662 40.9967 35.8757 39.8726 37.8742 37.8742C39.8726 35.8757 40.9967 33.1662 41 30.34V10.66C40.9967 7.83379 39.8726 5.12427 37.8742 3.12584C35.8757 1.1274 33.1662 0.00325538 30.34 0ZM39.36 30.34C39.3573 32.7314 38.4061 35.0241 36.7151 36.7151C35.0241 38.4061 32.7314 39.3573 30.34 39.36H10.66C8.26858 39.3573 5.97588 38.4061 4.28489 36.7151C2.5939 35.0241 1.64271 32.7314 1.64 30.34V10.66C1.64271 8.26858 2.5939 5.97588 4.28489 4.28489C5.97588 2.5939 8.26858 1.64271 10.66 1.64H30.34C32.7314 1.64271 35.0241 2.5939 36.7151 4.28489C38.4061 5.97588 39.3573 8.26858 39.36 10.66V30.34ZM32.8 9.84C32.8 10.1644 32.7038 10.4814 32.5236 10.7511C32.3434 11.0208 32.0873 11.231 31.7876 11.3552C31.4879 11.4793 31.1582 11.5118 30.8401 11.4485C30.5219 11.3852 30.2297 11.229 30.0003 10.9997C29.771 10.7703 29.6148 10.4781 29.5515 10.1599C29.4882 9.84182 29.5207 9.51207 29.6448 9.2124C29.769 8.91273 29.9792 8.6566 30.2489 8.47639C30.5186 8.29618 30.8356 8.2 31.16 8.2C31.595 8.2 32.0121 8.37279 32.3197 8.68035C32.6272 8.9879 32.8 9.40504 32.8 9.84Z" fill="#4F585D"/>
</g>
<defs>
<clipPath id="clip0_2011_11">
<rect width="41" height="41" fill="white"/>
</clipPath>
</defs>
</svg>
